<?xml version="1.0" standalone="no"?>
<!DOCTYPE svg PUBLIC "-//W3C//DTD SVG 20010904//EN"
 "http://www.w3.org/TR/2001/REC-SVG-20010904/DTD/svg10.dtd">
<svg version="1.0" xmlns="http://www.w3.org/2000/svg"
 width="96.000000pt" height="96.000000pt" viewBox="0 0 96.000000 96.000000"
 preserveAspectRatio="xMidYMid meet">

<g transform="translate(0.000000,96.000000) scale(0.100000,-0.100000)"
fill="#000000" stroke="none">
<path d="M105 680 c-10 -11 -24 -20 -32 -20 -17 0 -17 -17 0 -23 21 -7 -12
-37 -40 -37 -21 0 -23 -3 -14 -14 7 -8 25 -18 41 -21 41 -9 44 -33 15 -99 -28
-64 -45 -166 -26 -166 6 0 11 -9 11 -20 0 -19 5 -21 73 -18 l72 3 -3 35 c-6
72 -4 109 10 136 13 28 17 29 93 34 l80 5 3 38 c2 21 9 40 15 42 13 5 97 12
160 14 29 1 40 6 47 24 l9 22 0 -22 c1 -23 2 -23 166 -23 l165 0 0 55 0 55
-165 0 c-150 0 -165 -2 -166 -17 0 -11 -3 -13 -6 -5 -2 6 -12 12 -21 12 -9 0
-26 7 -36 15 -22 17 -96 20 -96 5 0 -14 -313 -13 -326 0 -7 7 -16 4 -29 -10z
m239 -126 c10 -4 16 -18 16 -35 0 -28 -2 -29 -49 -29 -52 0 -76 16 -65 44 8
22 15 20 42 -11 16 -20 20 -22 13 -7 -15 31 8 52 43 38z"/>
</g>
</svg>
